<svg width="13" height="30" viewBox="0 0 13 30" fill="none" xmlns="http://www.w3.org/2000/svg">
<path fill-rule="evenodd" clip-rule="evenodd" d="M12.1102 18.0942C12.0915 17.0957 12.0722 16.0607 12.0722 15C12.0722 13.9393 12.0915 12.9043 12.1102 11.9058C12.2372 5.10608 12.3327 0 6.07217 0C-0.188318 0 -0.0928856 5.10608 0.0341814 11.9058C0.0528417 12.9043 0.0721686 13.9393 0.0721686 15C0.0721686 16.0607 0.0528417 17.0957 0.0341814 18.0942C-0.0928856 24.8939 -0.188318 30 6.07217 30C12.3327 30 12.2372 24.8939 12.1102 18.0942ZM10.1618 17.6085C10.1493 16.7559 10.1365 15.8721 10.1365 14.9663C10.1365 14.0605 10.1493 13.1767 10.1618 12.3241C10.2464 6.51754 10.31 2.1573 6.13958 2.1573C1.9692 2.1573 2.03278 6.51755 2.11742 12.3241C2.12985 13.1767 2.14273 14.0605 2.14273 14.9663C2.14273 15.8721 2.12985 16.7559 2.11742 17.6085C2.03278 23.415 1.9692 27.7753 6.13958 27.7753C10.31 27.7753 10.2464 23.415 10.1618 17.6085Z" fill="white"/>
<path d="M7.48813 15.0337C7.43675 23.6629 7.73407 25.4157 6.13982 25.4157C4.54556 25.4157 4.80753 23.6629 4.80753 15.0337C4.80753 6.40448 4.54556 4.65167 6.13982 4.65167C7.73407 4.65167 7.48813 6.40448 7.48813 15.0337Z" fill="white"/>
</svg>
